<?xml version="1.0" encoding="UTF-8"?><svg xmlns="http://www.w3.org/2000/svg" xmlns:xlink="http://www.w3.org/1999/xlink" fill-opacity="1" color-rendering="auto" color-interpolation="auto" text-rendering="auto" stroke="black" stroke-linecap="square" width="887" stroke-miterlimit="10" shape-rendering="auto" stroke-opacity="1" fill="black" stroke-dasharray="none" font-weight="normal" stroke-width="1" height="302" font-family="'Dialog'" font-style="normal" stroke-linejoin="miter" font-size="12px" stroke-dashoffset="0" image-rendering="auto">
  <!--Generated by ySVG 2.6-->
  <defs id="genericDefs"/>
  <g>
    <defs id="defs1">
      <clipPath clipPathUnits="userSpaceOnUse" id="clipPath1">
        <path d="M0 0 L887 0 L887 302 L0 302 L0 0 Z"/>
      </clipPath>
      <clipPath clipPathUnits="userSpaceOnUse" id="clipPath2">
        <path d="M292 183 L1179 183 L1179 485 L292 485 L292 183 Z"/>
      </clipPath>
    </defs>
    <g stroke-linecap="butt" transform="matrix(1,0,0,1,-292,-183)" fill="navy" text-rendering="geometricPrecision" shape-rendering="geometricPrecision" stroke="navy" stroke-miterlimit="1.45">
      <rect fill="none" x="851" width="313" height="244" y="225.5" clip-path="url(#clipPath2)"/>
    </g>
    <g text-rendering="geometricPrecision" stroke-miterlimit="1.45" shape-rendering="geometricPrecision" font-family="sans-serif" transform="matrix(1,0,0,1,-292,-183)" stroke-linecap="butt">
      <text x="962.6917" xml:space="preserve" y="215.984" clip-path="url(#clipPath2)" stroke="none">Just In Time (JiT)</text>
      <rect x="307" y="223" clip-path="url(#clipPath2)" fill="none" width="519" height="244" stroke="navy"/>
      <text x="509.8656" xml:space="preserve" y="213.484" clip-path="url(#clipPath2)" stroke="none">Ahead of Time (AoT)</text>
      <rect x="312" y="311" clip-path="url(#clipPath2)" fill="none" width="151" height="140" stroke="red"/>
      <text x="328.7536" xml:space="preserve" y="301.484" clip-path="url(#clipPath2)" stroke="none">Developer's Machine</text>
      <rect x="658" y="311" clip-path="url(#clipPath2)" fill="none" width="501" height="140" stroke="red"/>
    </g>
    <g fill="white" text-rendering="geometricPrecision" shape-rendering="geometricPrecision" transform="matrix(1,0,0,1,-292,-183)" stroke="white">
      <rect x="833.6715" width="149.657" height="20.3441" y="286.6559" clip-path="url(#clipPath2)" stroke="none"/>
    </g>
    <g text-rendering="geometricPrecision" stroke-miterlimit="1.45" shape-rendering="geometricPrecision" font-family="sans-serif" transform="matrix(1,0,0,1,-292,-183)" stroke-linecap="butt">
      <text x="835.6715" xml:space="preserve" y="301.484" clip-path="url(#clipPath2)" stroke="none">Java Virtual Machine (JVM)</text>
    </g>
    <g fill="rgb(153,204,255)" text-rendering="geometricPrecision" shape-rendering="geometricPrecision" transform="matrix(1,0,0,1,-292,-183)" stroke="rgb(153,204,255)">
      <rect x="324" width="129" height="66.322" y="349.839" clip-path="url(#clipPath2)" stroke="none"/>
      <rect x="324" y="349.839" clip-path="url(#clipPath2)" fill="rgb(218,255,255)" width="1" height="66.322" stroke="none"/>
      <rect x="325" y="349.839" clip-path="url(#clipPath2)" fill="rgb(218,255,255)" width="127" height="1" stroke="none"/>
      <rect x="325" y="415.161" clip-path="url(#clipPath2)" fill="rgb(107,142,178)" width="128" height="1" stroke="none"/>
      <rect x="452" y="349.839" clip-path="url(#clipPath2)" fill="rgb(107,142,178)" width="1" height="65.322" stroke="none"/>
    </g>
    <g text-rendering="geometricPrecision" stroke-miterlimit="1.45" shape-rendering="geometricPrecision" font-family="sans-serif" transform="matrix(1,0,0,1,-292,-183)" stroke-linecap="butt">
      <text x="365.2978" xml:space="preserve" y="379.484" clip-path="url(#clipPath2)" stroke="none">Compile</text>
      <text x="354.7558" xml:space="preserve" y="395.8281" clip-path="url(#clipPath2)" stroke="none">(static code)</text>
    </g>
    <g fill="rgb(153,204,255)" text-rendering="geometricPrecision" shape-rendering="geometricPrecision" transform="matrix(1,0,0,1,-292,-183)" stroke="rgb(153,204,255)">
      <rect x="676" width="129" height="66.322" y="349.839" clip-path="url(#clipPath2)" stroke="none"/>
      <rect x="676" y="349.839" clip-path="url(#clipPath2)" fill="rgb(218,255,255)" width="1" height="66.322" stroke="none"/>
      <rect x="677" y="349.839" clip-path="url(#clipPath2)" fill="rgb(218,255,255)" width="127" height="1" stroke="none"/>
      <rect x="677" y="415.161" clip-path="url(#clipPath2)" fill="rgb(107,142,178)" width="128" height="1" stroke="none"/>
      <rect x="804" y="349.839" clip-path="url(#clipPath2)" fill="rgb(107,142,178)" width="1" height="65.322" stroke="none"/>
    </g>
    <g text-rendering="geometricPrecision" stroke-miterlimit="1.45" shape-rendering="geometricPrecision" font-family="sans-serif" transform="matrix(1,0,0,1,-292,-183)" stroke-linecap="butt">
      <text x="714.8438" xml:space="preserve" y="379.484" clip-path="url(#clipPath2)" stroke="none">Pre-main</text>
      <text x="716.5298" xml:space="preserve" y="395.8281" clip-path="url(#clipPath2)" stroke="none">(Leyden)</text>
    </g>
    <g fill="rgb(153,204,255)" text-rendering="geometricPrecision" shape-rendering="geometricPrecision" transform="matrix(1,0,0,1,-292,-183)" stroke="rgb(153,204,255)">
      <path d="M501 337.5 L617.1 337.5 L630 383 L617.1 428.5 L501 428.5 L513.9 383 Z" fill-rule="evenodd" clip-path="url(#clipPath2)" stroke="none"/>
    </g>
    <g stroke-linecap="butt" transform="matrix(1,0,0,1,-292,-183)" fill="navy" text-rendering="geometricPrecision" shape-rendering="geometricPrecision" stroke="navy" stroke-miterlimit="1.45">
      <path fill="none" d="M501 337.5 L617.1 337.5 L630 383 L617.1 428.5 L501 428.5 L513.9 383 Z" fill-rule="evenodd" clip-path="url(#clipPath2)"/>
      <text x="538.4938" y="379.484" clip-path="url(#clipPath2)" fill="black" font-family="sans-serif" stroke="none" xml:space="preserve">ByteCode</text>
      <text x="552.6959" y="395.8281" clip-path="url(#clipPath2)" fill="black" font-family="sans-serif" stroke="none" xml:space="preserve">(JAR)</text>
    </g>
    <g fill="rgb(153,204,255)" text-rendering="geometricPrecision" shape-rendering="geometricPrecision" transform="matrix(1,0,0,1,-292,-183)" stroke="rgb(153,204,255)">
      <rect x="858" width="129" height="66.322" y="349.839" clip-path="url(#clipPath2)" stroke="none"/>
      <rect x="858" y="349.839" clip-path="url(#clipPath2)" fill="rgb(218,255,255)" width="1" height="66.322" stroke="none"/>
      <rect x="859" y="349.839" clip-path="url(#clipPath2)" fill="rgb(218,255,255)" width="127" height="1" stroke="none"/>
      <rect x="859" y="415.161" clip-path="url(#clipPath2)" fill="rgb(107,142,178)" width="128" height="1" stroke="none"/>
      <rect x="986" y="349.839" clip-path="url(#clipPath2)" fill="rgb(107,142,178)" width="1" height="65.322" stroke="none"/>
    </g>
    <g text-rendering="geometricPrecision" stroke-miterlimit="1.45" shape-rendering="geometricPrecision" font-family="sans-serif" transform="matrix(1,0,0,1,-292,-183)" stroke-linecap="butt">
      <text x="881.3577" xml:space="preserve" y="371.3119" clip-path="url(#clipPath2)" stroke="none">Compile, Link, </text>
      <text x="884.7238" xml:space="preserve" y="387.656" clip-path="url(#clipPath2)" stroke="none">and Optimize</text>
      <text x="896.1118" xml:space="preserve" y="404.0002" clip-path="url(#clipPath2)" stroke="none">on the fly</text>
    </g>
    <g fill="rgb(153,204,255)" text-rendering="geometricPrecision" shape-rendering="geometricPrecision" transform="matrix(1,0,0,1,-292,-183)" stroke="rgb(153,204,255)">
      <rect x="1024" width="129" height="66.322" y="349.839" clip-path="url(#clipPath2)" stroke="none"/>
      <rect x="1024" y="349.839" clip-path="url(#clipPath2)" fill="rgb(218,255,255)" width="1" height="66.322" stroke="none"/>
      <rect x="1025" y="349.839" clip-path="url(#clipPath2)" fill="rgb(218,255,255)" width="127" height="1" stroke="none"/>
      <rect x="1025" y="415.161" clip-path="url(#clipPath2)" fill="rgb(107,142,178)" width="128" height="1" stroke="none"/>
      <rect x="1152" y="349.839" clip-path="url(#clipPath2)" fill="rgb(107,142,178)" width="1" height="65.322" stroke="none"/>
    </g>
    <g text-rendering="geometricPrecision" stroke-miterlimit="1.45" shape-rendering="geometricPrecision" font-family="sans-serif" transform="matrix(1,0,0,1,-292,-183)" stroke-linecap="butt">
      <text x="1077.3519" xml:space="preserve" y="387.656" clip-path="url(#clipPath2)" stroke="none">Run</text>
    </g>
    <g fill="rgb(153,204,255)" text-rendering="geometricPrecision" shape-rendering="geometricPrecision" transform="matrix(1,0,0,1,-292,-183)" stroke="rgb(153,204,255)">
      <path d="M502 237 L618.1 237 L631 282.5 L618.1 328 L502 328 L514.9 282.5 Z" fill-rule="evenodd" clip-path="url(#clipPath2)" stroke="none"/>
    </g>
    <g stroke-linecap="butt" transform="matrix(1,0,0,1,-292,-183)" fill="navy" text-rendering="geometricPrecision" shape-rendering="geometricPrecision" stroke="navy" stroke-miterlimit="1.45">
      <path fill="none" d="M502 237 L618.1 237 L631 282.5 L618.1 328 L502 328 L514.9 282.5 Z" fill-rule="evenodd" clip-path="url(#clipPath2)"/>
      <text x="515.5717" y="278.984" clip-path="url(#clipPath2)" fill="black" font-family="sans-serif" stroke="none" xml:space="preserve">Training Run Data</text>
      <text x="551.4339" y="295.3281" clip-path="url(#clipPath2)" fill="black" font-family="sans-serif" stroke="none" xml:space="preserve">(CDS)</text>
      <path fill="none" d="M805.0146 383 L842.9686 383" clip-path="url(#clipPath2)" stroke="black"/>
      <path fill="black" d="M850.9686 383 L838.9686 378 L841.9686 383 L838.9686 388 Z" clip-path="url(#clipPath2)" stroke="none"/>
      <path fill="none" d="M453.0168 383 L505.8994 383" clip-path="url(#clipPath2)" stroke="black"/>
      <path fill="black" d="M513.8994 383 L501.8994 378 L504.8994 383 L501.8994 388 Z" clip-path="url(#clipPath2)" stroke="none"/>
      <path fill="none" d="M629.9714 383 L667.98 383" clip-path="url(#clipPath2)" stroke="black"/>
      <path fill="black" d="M675.98 383 L663.98 378 L666.98 383 L663.98 388 Z" clip-path="url(#clipPath2)" stroke="none"/>
      <path fill="none" d="M994.979 383 L1016.0084 383" clip-path="url(#clipPath2)" stroke="black"/>
      <path fill="black" d="M986.979 383 L998.979 388 L995.979 383 L998.979 378 Z" clip-path="url(#clipPath2)" stroke="none"/>
      <path fill="black" d="M1024.0083 383 L1012.0083 378 L1015.0083 383 L1012.0083 388 Z" clip-path="url(#clipPath2)" stroke="none"/>
      <path fill="none" d="M621.937 314.5197 L676.1725 345.8453" clip-path="url(#clipPath2)" stroke="black"/>
      <path fill="black" d="M683.1 349.8466 L675.2095 339.515 L675.3065 345.3452 L670.2079 348.1744 Z" clip-path="url(#clipPath2)" stroke="none"/>
    </g>
  </g>
</svg>
