<?xml version="1.0" encoding="UTF-8"?><svg xmlns="http://www.w3.org/2000/svg" xmlns:xlink="http://www.w3.org/1999/xlink" fill-opacity="1" color-rendering="auto" color-interpolation="auto" text-rendering="auto" stroke="black" stroke-linecap="square" width="465" stroke-miterlimit="10" shape-rendering="auto" stroke-opacity="1" fill="black" stroke-dasharray="none" font-weight="normal" stroke-width="1" height="945" font-family="'Dialog'" font-style="normal" stroke-linejoin="miter" font-size="12px" stroke-dashoffset="0" image-rendering="auto">
  <!--Generated by ySVG 2.6-->
  <defs id="genericDefs"/>
  <g>
    <defs id="defs1">
      <clipPath clipPathUnits="userSpaceOnUse" id="clipPath1">
        <path d="M0 0 L465 0 L465 945 L0 945 L0 0 Z"/>
      </clipPath>
      <clipPath clipPathUnits="userSpaceOnUse" id="clipPath2">
        <path d="M415 19 L880 19 L880 964 L415 964 L415 19 Z"/>
      </clipPath>
    </defs>
    <g fill="rgb(153,204,255)" text-rendering="geometricPrecision" shape-rendering="geometricPrecision" transform="matrix(1,0,0,1,-415,-19)" stroke="rgb(153,204,255)">
      <rect x="476" width="177" height="91" y="585.25" clip-path="url(#clipPath2)" stroke="none"/>
    </g>
    <g fill="rgb(218,255,255)" text-rendering="geometricPrecision" shape-rendering="geometricPrecision" transform="matrix(1,0,0,1,-415,-19)" stroke="rgb(218,255,255)">
      <rect x="476" width="1" height="91" y="585.25" clip-path="url(#clipPath2)" stroke="none"/>
      <rect x="477" width="175" height="1" y="585.25" clip-path="url(#clipPath2)" stroke="none"/>
      <rect x="477" y="675.25" clip-path="url(#clipPath2)" fill="rgb(107,142,178)" width="176" height="1" stroke="none"/>
      <rect x="652" y="585.25" clip-path="url(#clipPath2)" fill="rgb(107,142,178)" width="1" height="90" stroke="none"/>
    </g>
    <g text-rendering="geometricPrecision" stroke-miterlimit="1.45" shape-rendering="geometricPrecision" font-family="sans-serif" transform="matrix(1,0,0,1,-415,-19)" stroke-linecap="butt">
      <text x="517.5497" xml:space="preserve" y="635.406" clip-path="url(#clipPath2)" stroke="none">Compile method</text>
    </g>
    <g fill="rgb(153,204,255)" text-rendering="geometricPrecision" shape-rendering="geometricPrecision" transform="matrix(1,0,0,1,-415,-19)" stroke="rgb(153,204,255)">
      <path d="M647 238 L735.5 204 L824 238 L735.5 272 Z" fill-rule="evenodd" clip-path="url(#clipPath2)" stroke="none"/>
    </g>
    <g text-rendering="geometricPrecision" stroke-miterlimit="1.45" shape-rendering="geometricPrecision" transform="matrix(1,0,0,1,-415,-19)" stroke-linecap="butt">
      <path fill="none" d="M647 238 L735.5 204 L824 238 L735.5 272 Z" fill-rule="evenodd" clip-path="url(#clipPath2)"/>
      <text x="695.1737" xml:space="preserve" y="242.656" clip-path="url(#clipPath2)" font-family="sans-serif" stroke="none">Is it compiled?</text>
    </g>
    <g fill="rgb(153,204,255)" text-rendering="geometricPrecision" shape-rendering="geometricPrecision" transform="matrix(1,0,0,1,-415,-19)" stroke="rgb(153,204,255)">
      <rect x="647" width="177" height="91" y="721.25" clip-path="url(#clipPath2)" stroke="none"/>
      <rect x="647" y="721.25" clip-path="url(#clipPath2)" fill="rgb(218,255,255)" width="1" height="91" stroke="none"/>
      <rect x="648" y="721.25" clip-path="url(#clipPath2)" fill="rgb(218,255,255)" width="175" height="1" stroke="none"/>
      <rect x="648" y="811.25" clip-path="url(#clipPath2)" fill="rgb(107,142,178)" width="176" height="1" stroke="none"/>
      <rect x="823" y="721.25" clip-path="url(#clipPath2)" fill="rgb(107,142,178)" width="1" height="90" stroke="none"/>
    </g>
    <g text-rendering="geometricPrecision" stroke-miterlimit="1.45" shape-rendering="geometricPrecision" font-family="sans-serif" transform="matrix(1,0,0,1,-415,-19)" stroke-linecap="butt">
      <text x="700.6038" xml:space="preserve" y="771.406" clip-path="url(#clipPath2)" stroke="none">Run method</text>
    </g>
    <g fill="rgb(153,204,255)" text-rendering="geometricPrecision" shape-rendering="geometricPrecision" transform="matrix(1,0,0,1,-415,-19)" stroke="rgb(153,204,255)">
      <rect x="647" width="177" height="91" y="857.25" clip-path="url(#clipPath2)" stroke="none"/>
      <rect x="647" y="857.25" clip-path="url(#clipPath2)" fill="rgb(218,255,255)" width="1" height="91" stroke="none"/>
      <rect x="648" y="857.25" clip-path="url(#clipPath2)" fill="rgb(218,255,255)" width="175" height="1" stroke="none"/>
      <rect x="648" y="947.25" clip-path="url(#clipPath2)" fill="rgb(107,142,178)" width="176" height="1" stroke="none"/>
      <rect x="823" y="857.25" clip-path="url(#clipPath2)" fill="rgb(107,142,178)" width="1" height="90" stroke="none"/>
    </g>
    <g text-rendering="geometricPrecision" stroke-miterlimit="1.45" shape-rendering="geometricPrecision" font-family="sans-serif" transform="matrix(1,0,0,1,-415,-19)" stroke-linecap="butt">
      <text x="677.4976" xml:space="preserve" y="907.406" clip-path="url(#clipPath2)" stroke="none">Call another method</text>
    </g>
    <g fill="rgb(153,204,255)" text-rendering="geometricPrecision" shape-rendering="geometricPrecision" transform="matrix(1,0,0,1,-415,-19)" stroke="rgb(153,204,255)">
      <rect x="647" width="177" height="91" y="34.5" clip-path="url(#clipPath2)" stroke="none"/>
      <rect x="647" y="34.5" clip-path="url(#clipPath2)" fill="rgb(218,255,255)" width="1" height="91" stroke="none"/>
      <rect x="648" y="34.5" clip-path="url(#clipPath2)" fill="rgb(218,255,255)" width="175" height="1" stroke="none"/>
      <rect x="648" y="124.5" clip-path="url(#clipPath2)" fill="rgb(107,142,178)" width="176" height="1" stroke="none"/>
      <rect x="823" y="34.5" clip-path="url(#clipPath2)" fill="rgb(107,142,178)" width="1" height="90" stroke="none"/>
    </g>
    <g text-rendering="geometricPrecision" stroke-miterlimit="1.45" shape-rendering="geometricPrecision" font-family="sans-serif" transform="matrix(1,0,0,1,-415,-19)" stroke-linecap="butt">
      <text x="685.8737" xml:space="preserve" y="84.656" clip-path="url(#clipPath2)" stroke="none">Call Main method</text>
    </g>
    <g fill="rgb(153,204,255)" text-rendering="geometricPrecision" shape-rendering="geometricPrecision" transform="matrix(1,0,0,1,-415,-19)" stroke="rgb(153,204,255)">
      <path d="M476 494.25 L564.5 460.25 L653 494.25 L564.5 528.25 Z" fill-rule="evenodd" clip-path="url(#clipPath2)" stroke="none"/>
    </g>
    <g text-rendering="geometricPrecision" stroke-miterlimit="1.45" shape-rendering="geometricPrecision" transform="matrix(1,0,0,1,-415,-19)" stroke-linecap="butt">
      <path fill="none" d="M476 494.25 L564.5 460.25 L653 494.25 L564.5 528.25 Z" fill-rule="evenodd" clip-path="url(#clipPath2)"/>
      <text x="508.8076" xml:space="preserve" y="498.906" clip-path="url(#clipPath2)" font-family="sans-serif" stroke="none">Should we compile?</text>
    </g>
    <g fill="rgb(153,204,255)" text-rendering="geometricPrecision" shape-rendering="geometricPrecision" transform="matrix(1,0,0,1,-415,-19)" stroke="rgb(153,204,255)">
      <rect x="476" width="177" height="91" y="312.25" clip-path="url(#clipPath2)" stroke="none"/>
      <rect x="476" y="312.25" clip-path="url(#clipPath2)" fill="rgb(218,255,255)" width="1" height="91" stroke="none"/>
      <rect x="477" y="312.25" clip-path="url(#clipPath2)" fill="rgb(218,255,255)" width="175" height="1" stroke="none"/>
      <rect x="477" y="402.25" clip-path="url(#clipPath2)" fill="rgb(107,142,178)" width="176" height="1" stroke="none"/>
      <rect x="652" y="312.25" clip-path="url(#clipPath2)" fill="rgb(107,142,178)" width="1" height="90" stroke="none"/>
    </g>
    <g text-rendering="geometricPrecision" stroke-miterlimit="1.45" shape-rendering="geometricPrecision" font-family="sans-serif" transform="matrix(1,0,0,1,-415,-19)" stroke-linecap="butt">
      <text x="531.5358" xml:space="preserve" y="362.406" clip-path="url(#clipPath2)" stroke="none">Link classes</text>
      <path fill="none" d="M735.5 271.9828 L735.5 713.2413" clip-path="url(#clipPath2)"/>
      <path d="M735.5 721.2413 L740.5 709.2413 L735.5 712.2413 L730.5 709.2413 Z" clip-path="url(#clipPath2)" stroke="none"/>
      <text x="737.918" xml:space="preserve" y="291.8281" clip-path="url(#clipPath2)" stroke="none">Yes</text>
      <path fill="none" d="M621.7157 676.2549 L672.0411 716.2797" clip-path="url(#clipPath2)"/>
      <path d="M678.3022 721.2594 L672.0228 709.8766 L671.2584 715.6572 L665.7982 717.7031 Z" clip-path="url(#clipPath2)" stroke="none"/>
      <path fill="none" d="M735.5 812.2715 L735.5 849.2899" clip-path="url(#clipPath2)"/>
      <path d="M735.5 857.2899 L740.5 845.2899 L735.5 848.2899 L730.5 845.2899 Z" clip-path="url(#clipPath2)" stroke="none"/>
      <path fill="none" d="M823.9938 902.75 L855 902.75 L859.375 902.125 L862.5 900.25 L864.375 897.125 L865 892.75 L865 248 L864.375 243.625 L862.5 240.5 L859.375 238.625 L855 238 L831.9938 238" clip-path="url(#clipPath2)"/>
      <path d="M823.9938 238 L835.9938 243 L832.9938 238 L835.9938 233 Z" clip-path="url(#clipPath2)" stroke="none"/>
      <path fill="none" d="M735.5 125.479 L735.5 196.0184" clip-path="url(#clipPath2)"/>
      <path d="M735.5 204.0184 L740.5 192.0184 L735.5 195.0184 L730.5 192.0184 Z" clip-path="url(#clipPath2)" stroke="none"/>
      <path fill="none" d="M564.5 528.275 L564.5 577.2417" clip-path="url(#clipPath2)"/>
      <path d="M564.5 585.2417 L569.5 573.2417 L564.5 576.2417 L559.5 573.2417 Z" clip-path="url(#clipPath2)" stroke="none"/>
      <text x="584.8459" xml:space="preserve" y="548.0781" clip-path="url(#clipPath2)" stroke="none">Yes</text>
      <path fill="none" d="M476.0045 494.25 L440 494.25 L435.625 494.875 L432.5 496.75 L430.625 499.875 L430 504.25 L430 756.75 L430.625 761.125 L432.5 764.25 L435.625 766.125 L440 766.75 L639.0049 766.75" clip-path="url(#clipPath2)"/>
      <path d="M647.0049 766.75 L635.0049 761.75 L638.0049 766.75 L635.0049 771.75 Z" clip-path="url(#clipPath2)" stroke="none"/>
      <text x="453.6224" xml:space="preserve" y="512.531" clip-path="url(#clipPath2)" stroke="none">No</text>
      <text x="585.9756" xml:space="preserve" y="783.0781" clip-path="url(#clipPath2)" stroke="none">Run</text>
      <text x="554.2474" xml:space="preserve" y="799.4222" clip-path="url(#clipPath2)" stroke="none">interpret mode</text>
      <path fill="none" d="M704.1681 259.9415 L636.0109 307.6715" clip-path="url(#clipPath2)"/>
      <path d="M629.4579 312.2605 L642.1555 309.4726 L636.83 307.0979 L636.4192 301.2814 Z" clip-path="url(#clipPath2)" stroke="none"/>
      <text x="692.8115" xml:space="preserve" y="285.7618" clip-path="url(#clipPath2)" stroke="none">No</text>
      <path fill="none" d="M564.5 403.2389 L564.5 452.2542" clip-path="url(#clipPath2)"/>
      <path d="M564.5 460.2542 L569.5 448.2542 L564.5 451.2542 L559.5 448.2542 Z" clip-path="url(#clipPath2)" stroke="none"/>
    </g>
  </g>
</svg>
