<?xml version="1.0" encoding="UTF-8"?><svg xmlns="http://www.w3.org/2000/svg" xmlns:xlink="http://www.w3.org/1999/xlink" fill-opacity="1" color-rendering="auto" color-interpolation="auto" text-rendering="auto" stroke="black" stroke-linecap="square" width="787" stroke-miterlimit="10" shape-rendering="auto" stroke-opacity="1" fill="black" stroke-dasharray="none" font-weight="normal" stroke-width="1" height="1104" font-family="'Dialog'" font-style="normal" stroke-linejoin="miter" font-size="12px" stroke-dashoffset="0" image-rendering="auto">
  <!--Generated by ySVG 2.6-->
  <defs id="genericDefs"/>
  <g>
    <defs id="defs1">
      <clipPath clipPathUnits="userSpaceOnUse" id="clipPath1">
        <path d="M0 0 L787 0 L787 1104 L0 1104 L0 0 Z"/>
      </clipPath>
      <clipPath clipPathUnits="userSpaceOnUse" id="clipPath2">
        <path d="M1220 -90 L2007 -90 L2007 1014 L1220 1014 L1220 -90 Z"/>
      </clipPath>
    </defs>
    <g fill="rgb(153,204,255)" text-rendering="geometricPrecision" shape-rendering="geometricPrecision" transform="matrix(1,0,0,1,-1220,90)" stroke="rgb(153,204,255)">
      <rect x="1548.3516" width="177" height="91" y="635.75" clip-path="url(#clipPath2)" stroke="none"/>
    </g>
    <g fill="rgb(218,255,255)" text-rendering="geometricPrecision" shape-rendering="geometricPrecision" transform="matrix(1,0,0,1,-1220,90)" stroke="rgb(218,255,255)">
      <rect x="1548.3516" width="1" height="91" y="635.75" clip-path="url(#clipPath2)" stroke="none"/>
      <rect x="1549.3516" width="175" height="1" y="635.75" clip-path="url(#clipPath2)" stroke="none"/>
      <rect x="1549.3516" y="725.75" clip-path="url(#clipPath2)" fill="rgb(107,142,178)" width="176" height="1" stroke="none"/>
      <rect x="1724.3516" y="635.75" clip-path="url(#clipPath2)" fill="rgb(107,142,178)" width="1" height="90" stroke="none"/>
    </g>
    <g text-rendering="geometricPrecision" stroke-miterlimit="1.45" shape-rendering="geometricPrecision" font-family="sans-serif" transform="matrix(1,0,0,1,-1220,90)" stroke-linecap="butt">
      <text x="1589.9012" xml:space="preserve" y="685.906" clip-path="url(#clipPath2)" stroke="none">Compile method</text>
    </g>
    <g fill="rgb(153,204,255)" text-rendering="geometricPrecision" shape-rendering="geometricPrecision" transform="matrix(1,0,0,1,-1220,90)" stroke="rgb(153,204,255)">
      <path d="M1719.3516 288.5 L1807.8516 254.5 L1896.3516 288.5 L1807.8516 322.5 Z" fill-rule="evenodd" clip-path="url(#clipPath2)" stroke="none"/>
    </g>
    <g text-rendering="geometricPrecision" stroke-miterlimit="1.45" shape-rendering="geometricPrecision" transform="matrix(1,0,0,1,-1220,90)" stroke-linecap="butt">
      <path fill="none" d="M1719.3516 288.5 L1807.8516 254.5 L1896.3516 288.5 L1807.8516 322.5 Z" fill-rule="evenodd" clip-path="url(#clipPath2)"/>
      <text x="1767.5253" xml:space="preserve" y="293.156" clip-path="url(#clipPath2)" font-family="sans-serif" stroke="none">Is it compiled?</text>
    </g>
    <g fill="rgb(153,204,255)" text-rendering="geometricPrecision" shape-rendering="geometricPrecision" transform="matrix(1,0,0,1,-1220,90)" stroke="rgb(153,204,255)">
      <rect x="1719.3516" width="177" height="91" y="771.75" clip-path="url(#clipPath2)" stroke="none"/>
      <rect x="1719.3516" y="771.75" clip-path="url(#clipPath2)" fill="rgb(218,255,255)" width="1" height="91" stroke="none"/>
      <rect x="1720.3516" y="771.75" clip-path="url(#clipPath2)" fill="rgb(218,255,255)" width="175" height="1" stroke="none"/>
      <rect x="1720.3516" y="861.75" clip-path="url(#clipPath2)" fill="rgb(107,142,178)" width="176" height="1" stroke="none"/>
      <rect x="1895.3516" y="771.75" clip-path="url(#clipPath2)" fill="rgb(107,142,178)" width="1" height="90" stroke="none"/>
    </g>
    <g text-rendering="geometricPrecision" stroke-miterlimit="1.45" shape-rendering="geometricPrecision" font-family="sans-serif" transform="matrix(1,0,0,1,-1220,90)" stroke-linecap="butt">
      <text x="1772.9553" xml:space="preserve" y="821.906" clip-path="url(#clipPath2)" stroke="none">Run method</text>
    </g>
    <g fill="rgb(153,204,255)" text-rendering="geometricPrecision" shape-rendering="geometricPrecision" transform="matrix(1,0,0,1,-1220,90)" stroke="rgb(153,204,255)">
      <rect x="1719.3516" width="177" height="91" y="907.75" clip-path="url(#clipPath2)" stroke="none"/>
      <rect x="1719.3516" y="907.75" clip-path="url(#clipPath2)" fill="rgb(218,255,255)" width="1" height="91" stroke="none"/>
      <rect x="1720.3516" y="907.75" clip-path="url(#clipPath2)" fill="rgb(218,255,255)" width="175" height="1" stroke="none"/>
      <rect x="1720.3516" y="997.75" clip-path="url(#clipPath2)" fill="rgb(107,142,178)" width="176" height="1" stroke="none"/>
      <rect x="1895.3516" y="907.75" clip-path="url(#clipPath2)" fill="rgb(107,142,178)" width="1" height="90" stroke="none"/>
    </g>
    <g text-rendering="geometricPrecision" stroke-miterlimit="1.45" shape-rendering="geometricPrecision" font-family="sans-serif" transform="matrix(1,0,0,1,-1220,90)" stroke-linecap="butt">
      <text x="1749.8491" xml:space="preserve" y="957.906" clip-path="url(#clipPath2)" stroke="none">Call another method</text>
    </g>
    <g fill="rgb(153,204,255)" text-rendering="geometricPrecision" shape-rendering="geometricPrecision" transform="matrix(1,0,0,1,-1220,90)" stroke="rgb(153,204,255)">
      <rect x="1719.3516" width="177" height="91" y="85" clip-path="url(#clipPath2)" stroke="none"/>
      <rect x="1719.3516" y="85" clip-path="url(#clipPath2)" fill="rgb(218,255,255)" width="1" height="91" stroke="none"/>
      <rect x="1720.3516" y="85" clip-path="url(#clipPath2)" fill="rgb(218,255,255)" width="175" height="1" stroke="none"/>
      <rect x="1720.3516" y="175" clip-path="url(#clipPath2)" fill="rgb(107,142,178)" width="176" height="1" stroke="none"/>
      <rect x="1895.3516" y="85" clip-path="url(#clipPath2)" fill="rgb(107,142,178)" width="1" height="90" stroke="none"/>
    </g>
    <g text-rendering="geometricPrecision" stroke-miterlimit="1.45" shape-rendering="geometricPrecision" font-family="sans-serif" transform="matrix(1,0,0,1,-1220,90)" stroke-linecap="butt">
      <text x="1758.2252" xml:space="preserve" y="135.156" clip-path="url(#clipPath2)" stroke="none">Call Main method</text>
    </g>
    <g fill="rgb(153,204,255)" text-rendering="geometricPrecision" shape-rendering="geometricPrecision" transform="matrix(1,0,0,1,-1220,90)" stroke="rgb(153,204,255)">
      <path d="M1548.3516 544.75 L1636.8516 510.75 L1725.3516 544.75 L1636.8516 578.75 Z" fill-rule="evenodd" clip-path="url(#clipPath2)" stroke="none"/>
    </g>
    <g text-rendering="geometricPrecision" stroke-miterlimit="1.45" shape-rendering="geometricPrecision" transform="matrix(1,0,0,1,-1220,90)" stroke-linecap="butt">
      <path fill="none" d="M1548.3516 544.75 L1636.8516 510.75 L1725.3516 544.75 L1636.8516 578.75 Z" fill-rule="evenodd" clip-path="url(#clipPath2)"/>
      <text x="1581.1592" xml:space="preserve" y="549.406" clip-path="url(#clipPath2)" font-family="sans-serif" stroke="none">Should we compile?</text>
    </g>
    <g fill="rgb(153,204,255)" text-rendering="geometricPrecision" shape-rendering="geometricPrecision" transform="matrix(1,0,0,1,-1220,90)" stroke="rgb(153,204,255)">
      <rect x="1548.3516" width="177" height="91" y="362.75" clip-path="url(#clipPath2)" stroke="none"/>
      <rect x="1548.3516" y="362.75" clip-path="url(#clipPath2)" fill="rgb(218,255,255)" width="1" height="91" stroke="none"/>
      <rect x="1549.3516" y="362.75" clip-path="url(#clipPath2)" fill="rgb(218,255,255)" width="175" height="1" stroke="none"/>
      <rect x="1549.3516" y="452.75" clip-path="url(#clipPath2)" fill="rgb(107,142,178)" width="176" height="1" stroke="none"/>
      <rect x="1724.3516" y="362.75" clip-path="url(#clipPath2)" fill="rgb(107,142,178)" width="1" height="90" stroke="none"/>
    </g>
    <g text-rendering="geometricPrecision" stroke-miterlimit="1.45" shape-rendering="geometricPrecision" font-family="sans-serif" transform="matrix(1,0,0,1,-1220,90)" stroke-linecap="butt">
      <text x="1603.8873" xml:space="preserve" y="412.906" clip-path="url(#clipPath2)" stroke="none">Link classes</text>
    </g>
    <g fill="rgb(153,204,255)" text-rendering="geometricPrecision" shape-rendering="geometricPrecision" transform="matrix(1,0,0,1,-1220,90)" stroke="rgb(153,204,255)">
      <path d="M1719.3516 482.25 L1807.8516 448.25 L1896.3516 482.25 L1807.8516 516.2499 Z" fill-rule="evenodd" clip-path="url(#clipPath2)" stroke="none"/>
    </g>
    <g text-rendering="geometricPrecision" stroke-miterlimit="1.45" shape-rendering="geometricPrecision" transform="matrix(1,0,0,1,-1220,90)" stroke-linecap="butt">
      <path fill="none" d="M1719.3516 482.25 L1807.8516 448.25 L1896.3516 482.25 L1807.8516 516.2499 Z" fill-rule="evenodd" clip-path="url(#clipPath2)"/>
      <text x="1750.0531" xml:space="preserve" y="486.906" clip-path="url(#clipPath2)" font-family="sans-serif" stroke="none">Should we optimize?</text>
    </g>
    <g fill="rgb(153,204,255)" text-rendering="geometricPrecision" shape-rendering="geometricPrecision" transform="matrix(1,0,0,1,-1220,90)" stroke="rgb(153,204,255)">
      <rect x="1719.3516" width="177" height="91" y="-74.6966" clip-path="url(#clipPath2)" stroke="none"/>
      <rect x="1719.3516" y="-74.6966" clip-path="url(#clipPath2)" fill="rgb(218,255,255)" width="1" height="91" stroke="none"/>
      <rect x="1720.3516" y="-74.6966" clip-path="url(#clipPath2)" fill="rgb(218,255,255)" width="175" height="1" stroke="none"/>
      <rect x="1720.3516" y="15.3034" clip-path="url(#clipPath2)" fill="rgb(107,142,178)" width="176" height="1" stroke="none"/>
      <rect x="1895.3516" y="-74.6966" clip-path="url(#clipPath2)" fill="rgb(107,142,178)" width="1" height="90" stroke="none"/>
    </g>
    <g text-rendering="geometricPrecision" stroke-miterlimit="1.45" shape-rendering="geometricPrecision" font-family="sans-serif" transform="matrix(1,0,0,1,-1220,90)" stroke-linecap="butt">
      <text x="1782.3634" xml:space="preserve" y="-40.8847" clip-path="url(#clipPath2)" stroke="none">Pre-Main</text>
      <text x="1760.0132" xml:space="preserve" y="-24.5406" clip-path="url(#clipPath2)" stroke="none">Get training data</text>
      <text x="1759.0712" xml:space="preserve" y="-8.1964" clip-path="url(#clipPath2)" stroke="none">from CDS archive</text>
    </g>
    <g fill="rgb(153,204,255)" text-rendering="geometricPrecision" shape-rendering="geometricPrecision" transform="matrix(1,0,0,1,-1220,90)" stroke="rgb(153,204,255)">
      <rect x="1512.3516" width="177" height="91" y="85" clip-path="url(#clipPath2)" stroke="none"/>
      <rect x="1512.3516" y="85" clip-path="url(#clipPath2)" fill="rgb(218,255,255)" width="1" height="91" stroke="none"/>
      <rect x="1513.3516" y="85" clip-path="url(#clipPath2)" fill="rgb(218,255,255)" width="175" height="1" stroke="none"/>
      <rect x="1513.3516" y="175" clip-path="url(#clipPath2)" fill="rgb(107,142,178)" width="176" height="1" stroke="none"/>
      <rect x="1688.3516" y="85" clip-path="url(#clipPath2)" fill="rgb(107,142,178)" width="1" height="90" stroke="none"/>
    </g>
    <g text-rendering="geometricPrecision" stroke-miterlimit="1.45" shape-rendering="geometricPrecision" font-family="sans-serif" transform="matrix(1,0,0,1,-1220,90)" stroke-linecap="butt">
      <text x="1571.2833" xml:space="preserve" y="110.6399" clip-path="url(#clipPath2)" stroke="none">Load Tier4</text>
      <text x="1548.2491" xml:space="preserve" y="126.984" clip-path="url(#clipPath2)" stroke="none">compiled methods</text>
      <text x="1536.0151" xml:space="preserve" y="143.3281" clip-path="url(#clipPath2)" stroke="none">with associated classes</text>
      <text x="1553.9313" xml:space="preserve" y="159.6722" clip-path="url(#clipPath2)" stroke="none">and linkage data</text>
    </g>
    <g fill="rgb(153,204,255)" text-rendering="geometricPrecision" shape-rendering="geometricPrecision" transform="matrix(1,0,0,1,-1220,90)" stroke="rgb(153,204,255)">
      <path d="M1235.9255 410 L1324.4255 376 L1412.9255 410 L1324.4255 444 Z" fill-rule="evenodd" clip-path="url(#clipPath2)" stroke="none"/>
    </g>
    <g text-rendering="geometricPrecision" stroke-miterlimit="1.45" shape-rendering="geometricPrecision" transform="matrix(1,0,0,1,-1220,90)" stroke-linecap="butt">
      <path fill="none" d="M1235.9255 410 L1324.4255 376 L1412.9255 410 L1324.4255 444 Z" fill-rule="evenodd" clip-path="url(#clipPath2)"/>
      <text x="1286.7035" xml:space="preserve" y="406.484" clip-path="url(#clipPath2)" font-family="sans-serif" stroke="none">Is it compiled</text>
      <text x="1292.7216" xml:space="preserve" y="422.8281" clip-path="url(#clipPath2)" font-family="sans-serif" stroke="none">in the CDS?</text>
    </g>
    <g fill="rgb(153,204,255)" text-rendering="geometricPrecision" shape-rendering="geometricPrecision" transform="matrix(1,0,0,1,-1220,90)" stroke="rgb(153,204,255)">
      <rect x="1235.9258" width="177" height="91" y="594.6483" clip-path="url(#clipPath2)" stroke="none"/>
      <rect x="1235.9258" y="594.6483" clip-path="url(#clipPath2)" fill="rgb(218,255,255)" width="1" height="91" stroke="none"/>
      <rect x="1236.9258" y="594.6483" clip-path="url(#clipPath2)" fill="rgb(218,255,255)" width="175" height="1" stroke="none"/>
      <rect x="1236.9258" y="684.6483" clip-path="url(#clipPath2)" fill="rgb(107,142,178)" width="176" height="1" stroke="none"/>
      <rect x="1411.9258" y="594.6483" clip-path="url(#clipPath2)" fill="rgb(107,142,178)" width="1" height="90" stroke="none"/>
    </g>
    <g text-rendering="geometricPrecision" stroke-miterlimit="1.45" shape-rendering="geometricPrecision" font-family="sans-serif" transform="matrix(1,0,0,1,-1220,90)" stroke-linecap="butt">
      <text x="1286.5835" xml:space="preserve" y="628.4603" clip-path="url(#clipPath2)" stroke="none">Load already </text>
      <text x="1276.2155" xml:space="preserve" y="644.8043" clip-path="url(#clipPath2)" stroke="none">compiled version</text>
      <text x="1272.2854" xml:space="preserve" y="661.1484" clip-path="url(#clipPath2)" stroke="none">with linked classes</text>
    </g>
    <g fill="rgb(153,204,255)" text-rendering="geometricPrecision" shape-rendering="geometricPrecision" transform="matrix(1,0,0,1,-1220,90)" stroke="rgb(153,204,255)">
      <path d="M1389.6279 288.5 L1478.1279 254.5 L1566.6279 288.5 L1478.1279 322.5 Z" fill-rule="evenodd" clip-path="url(#clipPath2)" stroke="none"/>
    </g>
    <g text-rendering="geometricPrecision" stroke-miterlimit="1.45" shape-rendering="geometricPrecision" transform="matrix(1,0,0,1,-1220,90)" stroke-linecap="butt">
      <path fill="none" d="M1389.6279 288.5 L1478.1279 254.5 L1566.6279 288.5 L1478.1279 322.5 Z" fill-rule="evenodd" clip-path="url(#clipPath2)"/>
      <text x="1443.4419" xml:space="preserve" y="293.156" clip-path="url(#clipPath2)" font-family="sans-serif" stroke="none">Is it trained?</text>
      <path fill="none" d="M1694.0673 726.7549 L1744.3926 766.7797" clip-path="url(#clipPath2)"/>
      <path d="M1750.6538 771.7594 L1744.3743 760.3766 L1743.61 766.1573 L1738.1497 768.2032 Z" clip-path="url(#clipPath2)" stroke="none"/>
      <path fill="none" d="M1807.8516 862.7715 L1807.8516 899.7899" clip-path="url(#clipPath2)"/>
      <path d="M1807.8516 907.7899 L1812.8516 895.7899 L1807.8516 898.7899 L1802.8516 895.7899 Z" clip-path="url(#clipPath2)" stroke="none"/>
      <path fill="none" d="M1896.3896 953.25 L1981.1016 953.25 L1985.4766 952.625 L1988.6016 950.75 L1990.4766 947.625 L1991.1016 943.25 L1991.1016 298.5 L1990.4766 294.125 L1988.6016 291 L1985.4766 289.125 L1981.1016 288.5 L1904.3896 288.5" clip-path="url(#clipPath2)"/>
      <path d="M1896.3896 288.5 L1908.3896 293.5 L1905.3896 288.5 L1908.3896 283.5 Z" clip-path="url(#clipPath2)" stroke="none"/>
      <path fill="none" d="M1807.8516 175.979 L1807.8516 246.5184" clip-path="url(#clipPath2)"/>
      <path d="M1807.8516 254.5184 L1812.8516 242.5184 L1807.8516 245.5184 L1802.8516 242.5184 Z" clip-path="url(#clipPath2)" stroke="none"/>
      <path fill="none" d="M1636.8516 578.775 L1636.8516 627.7417" clip-path="url(#clipPath2)"/>
      <path d="M1636.8516 635.7417 L1641.8516 623.7417 L1636.8516 626.7417 L1631.8516 623.7417 Z" clip-path="url(#clipPath2)" stroke="none"/>
      <text x="1597.1975" xml:space="preserve" y="598.5781" clip-path="url(#clipPath2)" font-family="sans-serif" stroke="none">Yes</text>
      <path fill="none" d="M1548.3561 544.75 L1512.3516 544.75 L1507.9766 545.375 L1504.8516 547.25 L1502.9766 550.375 L1502.3516 554.75 L1502.3516 807.25 L1502.9766 811.625 L1504.8516 814.75 L1507.9766 816.625 L1512.3516 817.25 L1711.3564 817.25" clip-path="url(#clipPath2)"/>
      <path d="M1719.3564 817.25 L1707.3564 812.25 L1710.3564 817.25 L1707.3564 822.25 Z" clip-path="url(#clipPath2)" stroke="none"/>
      <text x="1525.974" xml:space="preserve" y="563.031" clip-path="url(#clipPath2)" font-family="sans-serif" stroke="none">No</text>
      <text x="1658.3271" xml:space="preserve" y="793.8898" clip-path="url(#clipPath2)" font-family="sans-serif" stroke="none">Run</text>
      <text x="1626.5989" xml:space="preserve" y="810.2339" clip-path="url(#clipPath2)" font-family="sans-serif" stroke="none">interpret mode</text>
      <path fill="none" d="M1636.8516 453.7389 L1636.8516 502.7542" clip-path="url(#clipPath2)"/>
      <path d="M1636.8516 510.7542 L1641.8516 498.7542 L1636.8516 501.7542 L1631.8516 498.7542 Z" clip-path="url(#clipPath2)" stroke="none"/>
      <path fill="none" d="M1807.8516 322.5103 L1807.8516 440.2819" clip-path="url(#clipPath2)"/>
      <path d="M1807.8516 448.2819 L1812.8516 436.2819 L1807.8516 439.2819 L1802.8516 436.2819 Z" clip-path="url(#clipPath2)" stroke="none"/>
      <text x="1810.2695" xml:space="preserve" y="342.3281" clip-path="url(#clipPath2)" font-family="sans-serif" stroke="none">Yes</text>
      <path fill="none" d="M1785.8712 507.8295 L1681.1576 629.6891" clip-path="url(#clipPath2)"/>
      <path d="M1675.9437 635.7568 L1687.5568 629.914 L1681.8093 628.9307 L1679.9723 623.3967 Z" clip-path="url(#clipPath2)" stroke="none"/>
      <text x="1755.1398" xml:space="preserve" y="517.5992" clip-path="url(#clipPath2)" font-family="sans-serif" stroke="none">Yes</text>
      <path fill="none" d="M1807.8516 516.2325 L1807.8516 763.7226" clip-path="url(#clipPath2)"/>
      <path d="M1807.8516 771.7226 L1812.8516 759.7226 L1807.8516 762.7226 L1802.8516 759.7226 Z" clip-path="url(#clipPath2)" stroke="none"/>
      <text x="1817.6068" xml:space="preserve" y="534.1326" clip-path="url(#clipPath2)" font-family="sans-serif" stroke="none">No</text>
      <path fill="none" d="M1807.8516 16.3029 L1807.8516 77.0275" clip-path="url(#clipPath2)"/>
      <path d="M1807.8516 85.0275 L1812.8516 73.0275 L1807.8516 76.0275 L1802.8516 73.0275 Z" clip-path="url(#clipPath2)" stroke="none"/>
      <path fill="none" d="M1748.8495 16.3224 L1666.1897 80.0928" clip-path="url(#clipPath2)"/>
      <path d="M1659.8556 84.9795 L1672.4109 81.6083 L1666.9814 79.482 L1666.3026 73.6907 Z" clip-path="url(#clipPath2)" stroke="none"/>
      <text x="1646.8284" xml:space="preserve" y="31.5549" clip-path="url(#clipPath2)" font-family="sans-serif" stroke="none">run in parallel</text>
      <path fill="none" d="M1411.6472 409.5114 L1540.3589 408.7905" clip-path="url(#clipPath2)"/>
      <path d="M1548.3588 408.7457 L1536.3309 403.813 L1539.3589 408.7961 L1536.387 413.8128 Z" clip-path="url(#clipPath2)" stroke="none"/>
      <text x="1412.8379" xml:space="preserve" y="426.6449" clip-path="url(#clipPath2)" font-family="sans-serif" stroke="none">No</text>
      <path fill="none" d="M1324.4258 444.0222 L1324.4258 586.6122" clip-path="url(#clipPath2)"/>
      <path d="M1324.4258 594.6122 L1329.4258 582.6122 L1324.4258 585.6122 L1319.4258 582.6122 Z" clip-path="url(#clipPath2)" stroke="none"/>
      <text x="1328.7451" xml:space="preserve" y="463.0576" clip-path="url(#clipPath2)" font-family="sans-serif" stroke="none">Yes</text>
      <path fill="none" d="M1324.4258 685.6344 L1324.4258 837.7372 L1325.0508 842.1122 L1326.9258 845.2372 L1330.0508 847.1122 L1334.4258 847.7372 L1711.3356 847.7372" clip-path="url(#clipPath2)"/>
      <path d="M1719.3356 847.7372 L1707.3356 842.7372 L1710.3356 847.7372 L1707.3356 852.7372 Z" clip-path="url(#clipPath2)" stroke="none"/>
      <path fill="none" d="M1719.343 288.5 L1574.6108 288.5" clip-path="url(#clipPath2)"/>
      <path d="M1566.6108 288.5 L1578.6108 293.5 L1575.6108 288.5 L1578.6108 283.5 Z" clip-path="url(#clipPath2)" stroke="none"/>
      <text x="1696.3281" xml:space="preserve" y="280.2855" clip-path="url(#clipPath2)" font-family="sans-serif" stroke="none">No</text>
      <path fill="none" d="M1449.1964 311.3702 L1359.6707 382.1393" clip-path="url(#clipPath2)"/>
      <path d="M1353.3948 387.1004 L1365.9094 383.5812 L1360.4552 381.5191 L1359.708 375.7363 Z" clip-path="url(#clipPath2)" stroke="none"/>
      <text x="1414.1748" xml:space="preserve" y="320.2078" clip-path="url(#clipPath2)" font-family="sans-serif" stroke="none">Yes</text>
      <path fill="none" d="M1508.005 311.0408 L1570.1628 357.9362" clip-path="url(#clipPath2)"/>
      <path d="M1576.5492 362.7545 L1569.9812 351.5357 L1569.3646 357.334 L1563.9584 359.5186 Z" clip-path="url(#clipPath2)" stroke="none"/>
      <text x="1530.4789" xml:space="preserve" y="317.4069" clip-path="url(#clipPath2)" font-family="sans-serif" stroke="none">No</text>
    </g>
  </g>
</svg>
