<?xml version="1.0" encoding="UTF-8"?><svg xmlns="http://www.w3.org/2000/svg" xmlns:xlink="http://www.w3.org/1999/xlink" fill-opacity="1" color-rendering="auto" color-interpolation="auto" text-rendering="auto" stroke="black" stroke-linecap="square" width="519" stroke-miterlimit="10" shape-rendering="auto" stroke-opacity="1" fill="black" stroke-dasharray="none" font-weight="normal" stroke-width="1" height="944" font-family="'Dialog'" font-style="normal" stroke-linejoin="miter" font-size="12px" stroke-dashoffset="0" image-rendering="auto">
  <!--Generated by ySVG 2.6-->
  <defs id="genericDefs"/>
  <g>
    <defs id="defs1">
      <clipPath clipPathUnits="userSpaceOnUse" id="clipPath1">
        <path d="M0 0 L519 0 L519 944 L0 944 L0 0 Z"/>
      </clipPath>
      <clipPath clipPathUnits="userSpaceOnUse" id="clipPath2">
        <path d="M1416 45 L1935 45 L1935 989 L1416 989 L1416 45 Z"/>
      </clipPath>
    </defs>
    <g fill="rgb(153,204,255)" text-rendering="geometricPrecision" shape-rendering="geometricPrecision" transform="matrix(1,0,0,1,-1416,-45)" stroke="rgb(153,204,255)">
      <rect x="1477.1758" width="177" height="91" y="610.75" clip-path="url(#clipPath2)" stroke="none"/>
    </g>
    <g fill="rgb(218,255,255)" text-rendering="geometricPrecision" shape-rendering="geometricPrecision" transform="matrix(1,0,0,1,-1416,-45)" stroke="rgb(218,255,255)">
      <rect x="1477.1758" width="1" height="91" y="610.75" clip-path="url(#clipPath2)" stroke="none"/>
      <rect x="1478.1758" width="175" height="1" y="610.75" clip-path="url(#clipPath2)" stroke="none"/>
      <rect x="1478.1758" y="700.75" clip-path="url(#clipPath2)" fill="rgb(107,142,178)" width="176" height="1" stroke="none"/>
      <rect x="1653.1758" y="610.75" clip-path="url(#clipPath2)" fill="rgb(107,142,178)" width="1" height="90" stroke="none"/>
    </g>
    <g text-rendering="geometricPrecision" stroke-miterlimit="1.45" shape-rendering="geometricPrecision" font-family="sans-serif" transform="matrix(1,0,0,1,-1416,-45)" stroke-linecap="butt">
      <text x="1518.7255" xml:space="preserve" y="660.906" clip-path="url(#clipPath2)" stroke="none">Compile method</text>
    </g>
    <g fill="rgb(153,204,255)" text-rendering="geometricPrecision" shape-rendering="geometricPrecision" transform="matrix(1,0,0,1,-1416,-45)" stroke="rgb(153,204,255)">
      <path d="M1648.1758 263.5 L1736.6758 229.5 L1825.1758 263.5 L1736.6758 297.5 Z" fill-rule="evenodd" clip-path="url(#clipPath2)" stroke="none"/>
    </g>
    <g text-rendering="geometricPrecision" stroke-miterlimit="1.45" shape-rendering="geometricPrecision" transform="matrix(1,0,0,1,-1416,-45)" stroke-linecap="butt">
      <path fill="none" d="M1648.1758 263.5 L1736.6758 229.5 L1825.1758 263.5 L1736.6758 297.5 Z" fill-rule="evenodd" clip-path="url(#clipPath2)"/>
      <text x="1696.3495" xml:space="preserve" y="268.156" clip-path="url(#clipPath2)" font-family="sans-serif" stroke="none">Is it compiled?</text>
    </g>
    <g fill="rgb(153,204,255)" text-rendering="geometricPrecision" shape-rendering="geometricPrecision" transform="matrix(1,0,0,1,-1416,-45)" stroke="rgb(153,204,255)">
      <rect x="1648.1758" width="177" height="91" y="746.75" clip-path="url(#clipPath2)" stroke="none"/>
      <rect x="1648.1758" y="746.75" clip-path="url(#clipPath2)" fill="rgb(218,255,255)" width="1" height="91" stroke="none"/>
      <rect x="1649.1758" y="746.75" clip-path="url(#clipPath2)" fill="rgb(218,255,255)" width="175" height="1" stroke="none"/>
      <rect x="1649.1758" y="836.75" clip-path="url(#clipPath2)" fill="rgb(107,142,178)" width="176" height="1" stroke="none"/>
      <rect x="1824.1758" y="746.75" clip-path="url(#clipPath2)" fill="rgb(107,142,178)" width="1" height="90" stroke="none"/>
    </g>
    <g text-rendering="geometricPrecision" stroke-miterlimit="1.45" shape-rendering="geometricPrecision" font-family="sans-serif" transform="matrix(1,0,0,1,-1416,-45)" stroke-linecap="butt">
      <text x="1701.7795" xml:space="preserve" y="796.906" clip-path="url(#clipPath2)" stroke="none">Run method</text>
    </g>
    <g fill="rgb(153,204,255)" text-rendering="geometricPrecision" shape-rendering="geometricPrecision" transform="matrix(1,0,0,1,-1416,-45)" stroke="rgb(153,204,255)">
      <rect x="1648.1758" width="177" height="91" y="882.75" clip-path="url(#clipPath2)" stroke="none"/>
      <rect x="1648.1758" y="882.75" clip-path="url(#clipPath2)" fill="rgb(218,255,255)" width="1" height="91" stroke="none"/>
      <rect x="1649.1758" y="882.75" clip-path="url(#clipPath2)" fill="rgb(218,255,255)" width="175" height="1" stroke="none"/>
      <rect x="1649.1758" y="972.75" clip-path="url(#clipPath2)" fill="rgb(107,142,178)" width="176" height="1" stroke="none"/>
      <rect x="1824.1758" y="882.75" clip-path="url(#clipPath2)" fill="rgb(107,142,178)" width="1" height="90" stroke="none"/>
    </g>
    <g text-rendering="geometricPrecision" stroke-miterlimit="1.45" shape-rendering="geometricPrecision" font-family="sans-serif" transform="matrix(1,0,0,1,-1416,-45)" stroke-linecap="butt">
      <text x="1678.6733" xml:space="preserve" y="932.906" clip-path="url(#clipPath2)" stroke="none">Call another method</text>
    </g>
    <g fill="rgb(153,204,255)" text-rendering="geometricPrecision" shape-rendering="geometricPrecision" transform="matrix(1,0,0,1,-1416,-45)" stroke="rgb(153,204,255)">
      <rect x="1648.1758" width="177" height="91" y="60" clip-path="url(#clipPath2)" stroke="none"/>
      <rect x="1648.1758" y="60" clip-path="url(#clipPath2)" fill="rgb(218,255,255)" width="1" height="91" stroke="none"/>
      <rect x="1649.1758" y="60" clip-path="url(#clipPath2)" fill="rgb(218,255,255)" width="175" height="1" stroke="none"/>
      <rect x="1649.1758" y="150" clip-path="url(#clipPath2)" fill="rgb(107,142,178)" width="176" height="1" stroke="none"/>
      <rect x="1824.1758" y="60" clip-path="url(#clipPath2)" fill="rgb(107,142,178)" width="1" height="90" stroke="none"/>
    </g>
    <g text-rendering="geometricPrecision" stroke-miterlimit="1.45" shape-rendering="geometricPrecision" font-family="sans-serif" transform="matrix(1,0,0,1,-1416,-45)" stroke-linecap="butt">
      <text x="1687.0494" xml:space="preserve" y="110.156" clip-path="url(#clipPath2)" stroke="none">Call Main method</text>
    </g>
    <g fill="rgb(153,204,255)" text-rendering="geometricPrecision" shape-rendering="geometricPrecision" transform="matrix(1,0,0,1,-1416,-45)" stroke="rgb(153,204,255)">
      <path d="M1477.1758 519.75 L1565.6758 485.75 L1654.1758 519.75 L1565.6758 553.75 Z" fill-rule="evenodd" clip-path="url(#clipPath2)" stroke="none"/>
    </g>
    <g text-rendering="geometricPrecision" stroke-miterlimit="1.45" shape-rendering="geometricPrecision" transform="matrix(1,0,0,1,-1416,-45)" stroke-linecap="butt">
      <path fill="none" d="M1477.1758 519.75 L1565.6758 485.75 L1654.1758 519.75 L1565.6758 553.75 Z" fill-rule="evenodd" clip-path="url(#clipPath2)"/>
      <text x="1509.9834" xml:space="preserve" y="524.406" clip-path="url(#clipPath2)" font-family="sans-serif" stroke="none">Should we compile?</text>
    </g>
    <g fill="rgb(153,204,255)" text-rendering="geometricPrecision" shape-rendering="geometricPrecision" transform="matrix(1,0,0,1,-1416,-45)" stroke="rgb(153,204,255)">
      <rect x="1477.1758" width="177" height="91" y="337.75" clip-path="url(#clipPath2)" stroke="none"/>
      <rect x="1477.1758" y="337.75" clip-path="url(#clipPath2)" fill="rgb(218,255,255)" width="1" height="91" stroke="none"/>
      <rect x="1478.1758" y="337.75" clip-path="url(#clipPath2)" fill="rgb(218,255,255)" width="175" height="1" stroke="none"/>
      <rect x="1478.1758" y="427.75" clip-path="url(#clipPath2)" fill="rgb(107,142,178)" width="176" height="1" stroke="none"/>
      <rect x="1653.1758" y="337.75" clip-path="url(#clipPath2)" fill="rgb(107,142,178)" width="1" height="90" stroke="none"/>
    </g>
    <g text-rendering="geometricPrecision" stroke-miterlimit="1.45" shape-rendering="geometricPrecision" font-family="sans-serif" transform="matrix(1,0,0,1,-1416,-45)" stroke-linecap="butt">
      <text x="1532.7115" xml:space="preserve" y="387.906" clip-path="url(#clipPath2)" stroke="none">Link classes</text>
    </g>
    <g fill="rgb(153,204,255)" text-rendering="geometricPrecision" shape-rendering="geometricPrecision" transform="matrix(1,0,0,1,-1416,-45)" stroke="rgb(153,204,255)">
      <path d="M1648.1758 476.5 L1736.6758 442.5 L1825.1758 476.5 L1736.6758 510.5 Z" fill-rule="evenodd" clip-path="url(#clipPath2)" stroke="none"/>
    </g>
    <g text-rendering="geometricPrecision" stroke-miterlimit="1.45" shape-rendering="geometricPrecision" transform="matrix(1,0,0,1,-1416,-45)" stroke-linecap="butt">
      <path fill="none" d="M1648.1758 476.5 L1736.6758 442.5 L1825.1758 476.5 L1736.6758 510.5 Z" fill-rule="evenodd" clip-path="url(#clipPath2)"/>
      <text x="1678.8773" xml:space="preserve" y="481.156" clip-path="url(#clipPath2)" font-family="sans-serif" stroke="none">Should we optimize?</text>
      <path fill="none" d="M1622.8915 701.7549 L1673.2168 741.7797" clip-path="url(#clipPath2)"/>
      <path d="M1679.478 746.7594 L1673.1985 735.3766 L1672.4342 741.1573 L1666.9739 743.2032 Z" clip-path="url(#clipPath2)" stroke="none"/>
      <path fill="none" d="M1736.6758 837.7715 L1736.6758 874.7899" clip-path="url(#clipPath2)"/>
      <path d="M1736.6758 882.7899 L1741.6758 870.7899 L1736.6758 873.7899 L1731.6758 870.7899 Z" clip-path="url(#clipPath2)" stroke="none"/>
      <path fill="none" d="M1825.2139 928.25 L1909.9258 928.25 L1914.3008 927.625 L1917.4258 925.75 L1919.3008 922.625 L1919.9258 918.25 L1919.9258 273.5 L1919.3008 269.125 L1917.4258 266 L1914.3008 264.125 L1909.9258 263.5 L1833.2139 263.5" clip-path="url(#clipPath2)"/>
      <path d="M1825.2139 263.5 L1837.2139 268.5 L1834.2139 263.5 L1837.2139 258.5 Z" clip-path="url(#clipPath2)" stroke="none"/>
      <path fill="none" d="M1736.6758 150.979 L1736.6758 221.5184" clip-path="url(#clipPath2)"/>
      <path d="M1736.6758 229.5184 L1741.6758 217.5184 L1736.6758 220.5184 L1731.6758 217.5184 Z" clip-path="url(#clipPath2)" stroke="none"/>
      <path fill="none" d="M1565.6758 553.775 L1565.6758 602.7417" clip-path="url(#clipPath2)"/>
      <path d="M1565.6758 610.7417 L1570.6758 598.7417 L1565.6758 601.7417 L1560.6758 598.7417 Z" clip-path="url(#clipPath2)" stroke="none"/>
      <text x="1586.0217" xml:space="preserve" y="573.5781" clip-path="url(#clipPath2)" font-family="sans-serif" stroke="none">Yes</text>
      <path fill="none" d="M1477.1803 519.75 L1441.1758 519.75 L1436.8008 520.375 L1433.6758 522.25 L1431.8008 525.375 L1431.1758 529.75 L1431.1758 782.25 L1431.8008 786.625 L1433.6758 789.75 L1436.8008 791.625 L1441.1758 792.25 L1640.1807 792.25" clip-path="url(#clipPath2)"/>
      <path d="M1648.1807 792.25 L1636.1807 787.25 L1639.1807 792.25 L1636.1807 797.25 Z" clip-path="url(#clipPath2)" stroke="none"/>
      <text x="1454.7982" xml:space="preserve" y="538.031" clip-path="url(#clipPath2)" font-family="sans-serif" stroke="none">No</text>
      <text x="1587.1514" xml:space="preserve" y="808.5781" clip-path="url(#clipPath2)" font-family="sans-serif" stroke="none">Run</text>
      <text x="1555.4231" xml:space="preserve" y="824.9222" clip-path="url(#clipPath2)" font-family="sans-serif" stroke="none">interpret mode</text>
      <path fill="none" d="M1705.3439 285.4415 L1637.1866 333.1715" clip-path="url(#clipPath2)"/>
      <path d="M1630.6337 337.7604 L1643.3312 334.9726 L1638.0057 332.5979 L1637.5951 326.7814 Z" clip-path="url(#clipPath2)" stroke="none"/>
      <text x="1693.9873" xml:space="preserve" y="311.2618" clip-path="url(#clipPath2)" font-family="sans-serif" stroke="none">No</text>
      <path fill="none" d="M1565.6758 428.7389 L1565.6758 477.7542" clip-path="url(#clipPath2)"/>
      <path d="M1565.6758 485.7542 L1570.6758 473.7542 L1565.6758 476.7542 L1560.6758 473.7542 Z" clip-path="url(#clipPath2)" stroke="none"/>
      <path fill="none" d="M1736.6758 297.4833 L1736.6758 434.541" clip-path="url(#clipPath2)"/>
      <path d="M1736.6758 442.541 L1741.6758 430.541 L1736.6758 433.541 L1731.6758 430.541 Z" clip-path="url(#clipPath2)" stroke="none"/>
      <text x="1739.0938" xml:space="preserve" y="317.3281" clip-path="url(#clipPath2)" font-family="sans-serif" stroke="none">Yes</text>
      <path fill="none" d="M1712.9838 501.4043 L1614.4723 604.9565" clip-path="url(#clipPath2)"/>
      <path d="M1608.9583 610.7527 L1620.8519 605.5048 L1615.1615 604.2321 L1613.6067 598.6122 Z" clip-path="url(#clipPath2)" stroke="none"/>
      <text x="1682.467" xml:space="preserve" y="509.6326" clip-path="url(#clipPath2)" font-family="sans-serif" stroke="none">Yes</text>
      <text x="1634" xml:space="preserve" y="601.4713" clip-path="url(#clipPath2)" font-family="sans-serif" stroke="none">With Tier1-4</text>
      <path fill="none" d="M1736.6758 510.5341 L1736.6758 738.7532" clip-path="url(#clipPath2)"/>
      <path d="M1736.6758 746.7532 L1741.6758 734.7532 L1736.6758 737.7532 L1731.6758 734.7532 Z" clip-path="url(#clipPath2)" stroke="none"/>
      <text x="1746.431" xml:space="preserve" y="528.3826" clip-path="url(#clipPath2)" font-family="sans-serif" stroke="none">No</text>
    </g>
  </g>
</svg>
